<?xml version="1.0" ?><!DOCTYPE svg  PUBLIC '-//W3C//DTD SVG 1.1//EN'  'http://www.w3.org/Graphics/SVG/1.1/DTD/svg11.dtd'><svg enable-background="new 0 0 64 64" height="64px" id="Icons" version="1.1" viewBox="0 0 64 64" width="64px" xml:space="preserve" xmlns="http://www.w3.org/2000/svg" xmlns:xlink="http://www.w3.org/1999/xlink"><g id="place_optimization_2_"><path d="M28.145,48.063C19.5,48.344,13,49.553,13,51c0,1.655,8.508,3,19,3c10.491,0,19-1.345,19-3   c0-1.447-6.502-2.656-15.146-2.938c-0.283,0.346-0.554,0.672-0.811,0.979c7.883,0.203,13.239,1.166,14.694,1.959   c-1.636,0.892-8.193,2-17.738,2s-16.104-1.108-17.738-2c1.455-0.793,6.811-1.756,14.694-1.959   C28.699,48.734,28.428,48.408,28.145,48.063z" fill="#37474F"/><path d="M37.399,46.125c-0.26,0.335-0.513,0.655-0.762,0.967C48.841,47.572,57,49.893,57,52c0,2.506-9.511,6-25,6   S7,54.506,7,52c0-2.107,8.158-4.428,20.361-4.908c-0.248-0.312-0.5-0.632-0.761-0.967C15.641,46.631,6,48.674,6,52   c0,3.865,11.641,7,26,7c14.36,0,26-3.135,26-7C58,48.674,48.359,46.631,37.399,46.125z" fill="#37474F"/><path d="M48,21c0-8.835-7.165-16-16-16c-8.836,0-16,7.165-16,16c0,13,16,30,16,30S48,34,48,21z M32,6   c8.271,0,15,6.729,15,15c0,10.886-11.903,25.018-15,28.51C28.903,46.018,17,31.886,17,21C17,12.729,23.729,6,32,6z" fill="#37474F"/><path d="M34.092,32.006l0.547-2.289c0.518-0.17,1.046-0.406,1.595-0.713l1.903,1.117   c0.231,0.14,0.514,0.216,0.807,0.216c0.449,0,0.882-0.176,1.188-0.482l0.711-0.719c0.514-0.514,0.619-1.377,0.241-2.005   l-1.144-1.908c0.274-0.514,0.497-1.051,0.666-1.607l1.924-0.53c0.436-0.108,0.981-0.466,0.971-1.518L43.5,21.5v-1l0.001-0.067   c0.011-1.052-0.535-1.409-0.995-1.524l-2.02-0.529c-0.168-0.592-0.367-1.112-0.608-1.588l1.171-1.911   c0.385-0.639,0.286-1.501-0.226-2.012l-0.695-0.703c-0.304-0.304-0.729-0.476-1.172-0.476c-0.299,0-0.587,0.078-0.833,0.227   l-1.904,1.143c-0.514-0.273-1.05-0.496-1.604-0.664l-0.529-1.924c-0.068-0.276-0.357-0.972-1.429-0.972L32.568,9.5H32.5h-1h-0.068   l-0.088-0.001c-1.072,0-1.361,0.695-1.436,0.995l-0.529,2.02c-0.592,0.167-1.112,0.367-1.588,0.608l-1.91-1.171   c-0.261-0.156-0.556-0.236-0.861-0.236c-0.438,0-0.857,0.168-1.151,0.462l-0.703,0.695c-0.521,0.52-0.626,1.38-0.249,2.005   l1.143,1.904c-0.27,0.505-0.488,1.032-0.656,1.576l-2.391,0.547C20.416,19.053,19.5,19.611,19.5,20.5v1   c0,0.889,0.916,1.447,1.494,1.592l2.289,0.547c0.17,0.517,0.406,1.045,0.713,1.594l-1.117,1.904   c-0.367,0.61-0.256,1.472,0.266,1.994l0.72,0.712c0.297,0.297,0.724,0.468,1.169,0.468c0.301,0,0.59-0.078,0.836-0.226l1.908-1.144   c0.506,0.27,1.033,0.488,1.578,0.656l0.549,2.391c0.147,0.596,0.707,1.512,1.596,1.512h1C33.389,33.5,33.947,32.584,34.092,32.006z    M30.879,31.765l-0.684-2.977c-0.872-0.201-1.689-0.546-2.428-1.007l-2.414,1.446c-0.094,0.057-0.206,0.083-0.32,0.083   c-0.173,0-0.349-0.062-0.466-0.179l-0.715-0.707c-0.194-0.194-0.253-0.547-0.111-0.782l1.415-2.412   c-0.461-0.738-0.868-1.555-1.069-2.428l-2.852-0.682C20.969,22.055,20.5,21.775,20.5,21.5v-1c0-0.274,0.469-0.555,0.735-0.621   l2.976-0.681c0.202-0.873,0.547-1.688,1.008-2.427l-1.446-2.41c-0.142-0.235-0.099-0.584,0.096-0.778l0.707-0.699   c0.112-0.112,0.278-0.169,0.444-0.169c0.119,0,0.239,0.029,0.338,0.089l2.412,1.478c0.738-0.461,1.555-0.743,2.428-0.944   l0.682-2.602c0.054-0.216,0.248-0.236,0.465-0.236c0.052,0,0.104,0.001,0.156,0.001h1c0.053,0,0.104-0.001,0.156-0.001   c0.217,0,0.411,0.021,0.465,0.236l0.681,2.477c0.874,0.201,1.689,0.546,2.427,1.008l2.41-1.447   c0.094-0.057,0.205-0.083,0.317-0.083c0.171,0,0.344,0.062,0.461,0.179l0.699,0.707c0.194,0.194,0.222,0.547,0.08,0.782   l-1.479,2.412c0.462,0.738,0.744,1.555,0.946,2.428l2.601,0.682c0.267,0.066,0.235,0.347,0.235,0.621v1   c0,0.274,0.031,0.555-0.235,0.621l-2.476,0.683c-0.202,0.873-0.547,1.69-1.009,2.429l1.447,2.414   c0.142,0.235,0.099,0.592-0.096,0.786l-0.707,0.715c-0.121,0.121-0.304,0.189-0.481,0.189c-0.107,0-0.212-0.024-0.301-0.078   l-2.412-1.416c-0.737,0.462-1.554,0.869-2.428,1.07l-0.682,2.852C33.055,32.031,32.775,32.5,32.5,32.5h-1   C31.225,32.5,30.945,32.031,30.879,31.765z" fill="#37474F"/><path d="M36,21c0-2.209-1.791-4-4-4s-4,1.791-4,4s1.791,4,4,4S36,23.209,36,21z M32,24c-1.654,0-3-1.346-3-3   s1.346-3,3-3s3,1.346,3,3S33.654,24,32,24z" fill="#37474F"/></g></svg>